# xmcd CD database file
#
# Track frame offsets:
#	150
#	17712
#	52252
#	74877
#	107220
#	139650
#	175842
#
# Disc length: 2533 seconds
#
# Revision: 0
# Processed by: cddbd v1.5.2PL0 Copyright (c) Steve Scherf et al.
# Submitted via: CDex 1.51
#
DISCID=6a09e307
DTITLE=John Greiner - Shades
DYEAR=1992
DGENRE=Jazz
TTITLE0=Thing in D Flat
TTITLE1=Shades
TTITLE2=Tone Poem #1
TTITLE3=I Thought About You
TTITLE4=Like Someone in Love
TTITLE5=Don't You Know I Care
TTITLE6=Satellite
EXTD=YEAR: 1992
EXTT0=
EXTT1=
EXTT2=
EXTT3=
EXTT4=
EXTT5=
EXTT6=
PLAYORDER=
